<svg xmlns="http://www.w3.org/2000/svg" width="1080" height="520" viewBox="0 0 1080 520">
  <rect width="1080" height="520" fill="#ffffff"/>
  <text x="30" y="42" font-family="Arial, sans-serif" font-size="24" font-weight="700" fill="#111827">Push Operation: Insert at End</text>
  <text x="45" y="90" font-family="Arial, sans-serif" font-size="18" font-weight="700" fill="#1f2937">Before push(40)</text>
  <text x="45" y="320" font-family="Arial, sans-serif" font-size="18" font-weight="700" fill="#1f2937">After push(40)</text>

  <g transform="translate(110,115)">
    <text x="0" y="35" font-family="Arial, sans-serif" font-size="15" font-weight="700" fill="#111827">head</text>
    <line x1="45" y1="30" x2="90" y2="30" stroke="#111827" stroke-width="2"/>
    <polygon points="90,30 78,23 78,37" fill="#111827"/>
    <rect x="90" y="0" width="115" height="60" fill="#e0f2fe" stroke="#0369a1" stroke-width="2"/>
    <rect x="205" y="0" width="80" height="60" fill="#dcfce7" stroke="#15803d" stroke-width="2"/>
    <text x="113" y="36" font-family="Arial, sans-serif" font-size="15" font-weight="700">10</text>
    <text x="228" y="36" font-family="Arial, sans-serif" font-size="15" font-weight="700">next</text>
    <line x1="285" y1="30" x2="355" y2="30" stroke="#111827" stroke-width="2"/>
    <polygon points="355,30 343,23 343,37" fill="#111827"/>
    <rect x="355" y="0" width="115" height="60" fill="#e0f2fe" stroke="#0369a1" stroke-width="2"/>
    <rect x="470" y="0" width="80" height="60" fill="#dcfce7" stroke="#15803d" stroke-width="2"/>
    <text x="378" y="36" font-family="Arial, sans-serif" font-size="15" font-weight="700">20</text>
    <text x="493" y="36" font-family="Arial, sans-serif" font-size="15" font-weight="700">next</text>
    <line x1="550" y1="30" x2="620" y2="30" stroke="#111827" stroke-width="2"/>
    <polygon points="620,30 608,23 608,37" fill="#111827"/>
    <rect x="620" y="0" width="115" height="60" fill="#e0f2fe" stroke="#0369a1" stroke-width="2"/>
    <rect x="735" y="0" width="105" height="60" fill="#fee2e2" stroke="#b91c1c" stroke-width="2"/>
    <text x="643" y="36" font-family="Arial, sans-serif" font-size="15" font-weight="700">30</text>
    <text x="755" y="36" font-family="Arial, sans-serif" font-size="15" font-weight="700">NULL</text>
    <text x="645" y="-16" font-family="Arial, sans-serif" font-size="15" font-weight="700" fill="#111827">tail</text>
  </g>

  <g transform="translate(110,345)">
    <text x="0" y="35" font-family="Arial, sans-serif" font-size="15" font-weight="700" fill="#111827">head</text>
    <line x1="45" y1="30" x2="90" y2="30" stroke="#111827" stroke-width="2"/>
    <polygon points="90,30 78,23 78,37" fill="#111827"/>
    <rect x="90" y="0" width="95" height="60" fill="#e0f2fe" stroke="#0369a1" stroke-width="2"/>
    <rect x="185" y="0" width="70" height="60" fill="#dcfce7" stroke="#15803d" stroke-width="2"/>
    <text x="113" y="36" font-family="Arial, sans-serif" font-size="15" font-weight="700">10</text>
    <line x1="255" y1="30" x2="310" y2="30" stroke="#111827" stroke-width="2"/>
    <polygon points="310,30 298,23 298,37" fill="#111827"/>
    <rect x="310" y="0" width="95" height="60" fill="#e0f2fe" stroke="#0369a1" stroke-width="2"/>
    <rect x="405" y="0" width="70" height="60" fill="#dcfce7" stroke="#15803d" stroke-width="2"/>
    <text x="333" y="36" font-family="Arial, sans-serif" font-size="15" font-weight="700">20</text>
    <line x1="475" y1="30" x2="530" y2="30" stroke="#111827" stroke-width="2"/>
    <polygon points="530,30 518,23 518,37" fill="#111827"/>
    <rect x="530" y="0" width="95" height="60" fill="#e0f2fe" stroke="#0369a1" stroke-width="2"/>
    <rect x="625" y="0" width="70" height="60" fill="#dcfce7" stroke="#15803d" stroke-width="2"/>
    <text x="553" y="36" font-family="Arial, sans-serif" font-size="15" font-weight="700">30</text>
    <line x1="695" y1="30" x2="750" y2="30" stroke="#111827" stroke-width="2"/>
    <polygon points="750,30 738,23 738,37" fill="#111827"/>
    <rect x="750" y="0" width="95" height="60" fill="#e0f2fe" stroke="#0369a1" stroke-width="2"/>
    <rect x="845" y="0" width="95" height="60" fill="#fee2e2" stroke="#b91c1c" stroke-width="2"/>
    <text x="773" y="36" font-family="Arial, sans-serif" font-size="15" font-weight="700">40</text>
    <text x="865" y="36" font-family="Arial, sans-serif" font-size="15" font-weight="700">NULL</text>
    <text x="775" y="-16" font-family="Arial, sans-serif" font-size="15" font-weight="700" fill="#111827">tail</text>
  </g>
</svg>
